<?xml version="1.0" encoding="utf-8"?>
<!-- Generator: Adobe Illustrator 16.0.3, SVG Export Plug-In . SVG Version: 6.00 Build 0)  -->
<!DOCTYPE svg PUBLIC "-//W3C//DTD SVG 1.1//EN" "http://www.w3.org/Graphics/SVG/1.1/DTD/svg11.dtd">
<svg version="1.1" id="Layer_1" xmlns="http://www.w3.org/2000/svg" xmlns:xlink="http://www.w3.org/1999/xlink" x="0px" y="0px"
	 width="425.201px" height="160.732px" viewBox="0 0 425.201 160.732" enable-background="new 0 0 425.201 160.732"
	 xml:space="preserve">
<g>
	<path d="M354.018,40.387c0-7.834-3.781-12.696-7.023-15.128c-5.942-4.592-14.047-4.592-21.611-4.592h-6.483v40.791h6.754
		c5.673,0,15.128-0.811,21.07-5.132C350.507,53.624,354.018,48.221,354.018,40.387z"/>
	<path d="M330.246,92.253h-11.347v43.763h9.996c10.535,0,23.23-0.271,30.796-7.293c3.781-3.513,5.941-8.646,5.941-15.13
		c0-7.293-2.972-12.155-5.673-14.586C352.667,92.253,338.619,92.253,330.246,92.253z"/>
	<polygon points="198.418,133.313 254.336,133.313 254.336,160.732 277.839,160.732 277.839,0 198.418,0 	"/>
	<path d="M156.817,160.732V0h-39.439v110.893c0,13.506-0.811,33.497-15.669,48.083c-0.619,0.619-1.248,1.192-1.88,1.757H156.817z"/>
	<path d="M376.506,0c0.807,0.645,1.602,1.31,2.364,2.027c11.615,11.076,12.966,26.204,12.966,34.038
		c0,7.023-1.08,15.127-5.942,22.962c-4.593,7.563-10.806,11.345-15.128,13.236c8.645,1.351,18.369,5.673,24.854,12.155
		c5.942,5.944,11.615,16.209,11.615,32.147c0,18.099-7.023,29.444-14.048,36.468c-3.292,3.174-6.918,5.694-10.686,7.699h42.7V0
		H376.506z"/>
	<path d="M17.968,150.872L43.9,121.697c1.621,3.242,4.322,7.835,6.483,9.995c2.972,2.972,6.213,4.053,10.265,4.053
		c3.512,0,6.753-0.811,9.725-3.782c5.132-5.132,5.403-13.777,5.403-21.341V0H0v160.732h27.812
		C24.22,157.729,20.708,154.258,17.968,150.872z"/>
</g>
</svg>
